<svg clip-rule="evenodd" fill-rule="evenodd" image-rendering="optimizeQuality" shape-rendering="geometricPrecision" text-rendering="geometricPrecision" viewBox="0 0 2.54 2.54" xmlns="http://www.w3.org/2000/svg"><g id="&#x56FE;&#x5C42;_x0020_1"><circle cx="1.27" cy="1.27" fill="#48b02c" r="1.27"/><path d="m1.397.60254c.05768.01091.11276.02912.16429.05363l.07931-.10915c.04105-.05652.12089-.06915.17739-.0281.05652.04106.06915.12089.02811.17741l-.07983.10986c.03949.04225.07367.08952.10144.14078l.12747-.04142c.06643-.02159.13845.01512.16003.08154.02159.06644-.01512.13845-.08154.16005l-.12912.04194c.00315.02654.00481.05354.00481.08092 0 .03134-.00213.06218-.00624.09239l.12818.04164c.06644.02158.10313.09361.08154.16003-.02158.06644-.09361.10312-.16004.08156l-.13065-.04246c-.02839.05034-.063.0967-.10281.13803l.08054.11086c.04107.05651.02842.13635-.02809.1774-.05651.04106-.13634.0284-.17741-.02809l-.08226-.11324c-.05118.0234-.10575.04067-.16279.05078l-.00001.13958c.00001.06986-.05715.12701-.12699.12701-.06986 0-.127-.05716-.12702-.127l.00001-.14249c-.05623-.01132-.10997-.02959-.16025-.05387l-.08335.11471c-.04106.05652-.12089.06915-.17739.0281-.05652-.04106-.06915-.12089-.02811-.1774l.08474-.11662c-.03805-.04118-.07108-.08708-.09809-.13672l-.13573.0441c-.06644.02159-.13845-.01511-.16003-.08153-.02159-.06644.01512-.13845.08153-.16004l.13696-.0445c-.00325-.02696-.00497-.05439-.00497-.08223 0-.02923.00186-.05803.00545-.08629l-.13506-.04389c-.06644-.02158-.10313-.0936-.08154-.16002.02158-.06644.09361-.10312.16003-.08155l.13536.04398c.02754-.04988.06116-.09592.09988-.13714l-.08231-.11329c-.04106-.05651-.02842-.13634.02809-.17739.05651-.04106.13635-.0284.1774.02809l.08213.11305c.05114-.02418.10577-.04219.16294-.05301v-.13717c0-.06985.05715-.127.127-.127.06985 0 .127.05717.127.127zm-.127.24583c.23281 0 .42162.18882.42162.42163s-.18881.42162-.42162.42162-.42163-.18881-.42163-.42162.18882-.42163.42163-.42163z" fill="#fff"/></g></svg>