<svg clip-rule="evenodd" fill-rule="evenodd" image-rendering="optimizeQuality" shape-rendering="geometricPrecision" text-rendering="geometricPrecision" viewBox="0 0 254000 254000" xmlns="http://www.w3.org/2000/svg"><g id="&#x56FE;&#x5C42;_x0020_1"><circle cx="127000" cy="127000" fill="#48b02c" r="127001"/><g fill="#fff"><path d="m85482 198633h11 11 11 11 11 11 11 7438 11 11 11 9 9 3042 11 11 11 11 11 11 11 24669 48803 10608c2331 0 4233 1902 4233 4233v1c0 2331-1902 4233-4233 4233h-10608-48803-24758-3119-7489-3119c-2314 0-4207-1869-4233-4184s1829-4246 4146-4281c44 0 132-2 176-2z"/><g id="_109014056"><path id="_109014008" d="m155511 52681 25935 16014c1434 885 2386 2248 2767 3728 53 205 90 412 112 616 197 1309-40 2670-766 3847l-56382 91310c-1227 1989-3903 2564-5974 1285l-28815-17792c-2071-1279-2755-3929-1527-5917 65-106 135-207 208-305l56189-90997-15-9 2-2c843-1365 2191-2244 3686-2568l24-5c1481-316 3115-71 4546 809l9-15zm19178 21789-21328-13169-52790 85493 21329 13170z" fill-rule="nonzero"/><path id="_109014104" d="m97948 174963 8491-4622 8581-4670-8205-5067-8206-5067-332 9765zm12531 2809-14940 8133c-652 367-1409 566-2211 538-2334-78-4164-2035-4085-4368l580-17057 574-16846c-13-782 190-1577 631-2292 1228-1989 3838-2607 5827-1378l14409 8897 14408 8896-2 5c607 373 1127 906 1493 1578 1116 2051 356 4620-1695 5736z" fill-rule="nonzero"/><path id="_109013936" d="m147402 71417 9 6 9 5 10 6 9 6 10 6 9 5 9 6 22592 13950c1984 1225 2603 3842 1378 5826v1c-1225 1983-3843 2602-5826 1377l-22668-13996-2654-1639c-1969-1216-2597-3800-1403-5784 1194-1983 3789-2655 5777-1464 34 21 116 70 150 91z"/><path id="_109013912" d="m139097 84867 9 6 9 6 10 6 9 5 9 6 10 6 9 6 22592 13950c1984 1224 2603 3842 1378 5825v1c-1225 1984-3843 2603-5826 1378l-22668-13997-2654-1638c-1969-1216-2598-3801-1403-5784 1194-1984 3789-2656 5776-1465 34 21 117 70 151 91z"/></g></g></g></svg>